<?xml version="1.0" encoding="UTF-8"?><svg id="Ebene_1" xmlns="http://www.w3.org/2000/svg" viewBox="0 0 1450.16 948.7"><defs><style>.cls-1{fill:#795731;stroke-width:0px;}</style></defs><path class="cls-1" d="M377.04,109.68c-10.35,11.05-14.5,16.43-24.85,3.6-4.07,2.26-4.88,9.34-11.36,8.1-5.31-1.02-6.22-6.42-9.73-10.53-2.39,3.8-4.3,7.09-6.46,10.22-2.29,3.31-5.46,4.58-8.05.82-2.63-3.81-4.92-3.16-8.32-1.37-5.29,2.78-10.78,5.25-16.35,7.39-4.61,1.77-7.18,4.44-6.65,9.6.13,1.3-.15,2.65-.31,3.97-.18,1.42-.92,2.75-2.31,2.88-2.15.2-2.8-1.6-2.76-3.28.11-4.65.51-9.3.67-13.95.06-1.61.21-3.33-1.2-4.91-2.66-.84-3.78,1.8-5.55,2.95-8.36,5.45-16.28,4.39-21.32-4.02-2.38-3.98-4.28-3.99-7.89-2.55-5.09,2.04-9.81,3.87-10.07,10.68-.1,2.59-2.17,4.82-5.32,5.16-3.41.37-5.86-1.23-7.41-4.01-1.41-2.53-1.45-5.86.85-7.36,6.61-4.31,3.89-9.34,2.2-14.74-3.17-10.07-3.01-10.12-12.51-5.17-.89.46-1.78.91-2.66,1.38-6.53,3.55-6.67,3.61-4,10.56,2.13,5.52,2.7,10.97.37,16.49-1.16,2.75-2.28,5.89-6.02,5.75-3.75-.13-4.65-3.22-5.52-6.16-1.25-4.22-.93-8.58-1.11-12.9-.08-1.89.35-4.23-2.21-4.94-2.12-.59-4.01.4-5.38,1.91-11,12.08-22.27,23.99-24.87,41.18-.44,2.94-1.41,5.81-2.27,8.68-.39,1.3-1.33,2.45-2.79,2.33-1.47-.12-2.18-1.38-2.42-2.77-.47-2.69.04-5.28.86-7.86,4.72-14.8,6.92-29.76,2.92-45.15-.39-1.51-.56-3.29,1.86-4.68,7.06,6.61,3.97,15.78,5.72,25.27,4.61-5.59,8.65-10.14,12.29-14.99,4.58-6.09,10.16-10.39,17.74-12.03,7.97-1.72,14.44-6.69,21.53-10.31,2.07-1.06,4.12-2.19,6.24-3.14,3.26-1.45,5.31-.21,5.47,3.24.28,6.05,1.3,11.88,3.54,17.53,1.37,3.44,3.41,4.69,6.9,3.06,5.69-2.66,11.96-4.57,14.05-11.65.35-1.17,1.41-2.23,2.38-3.09,1.02-.91,2.39-1.19,3.7-.48,1.62.88,2.57,2.34,1.91,4.09-.69,1.84-1.93,3.47-2.86,5.23-2.02,3.84-2.68,7.74,1.01,10.88,3.4,2.88,7.36,2.67,11.23.76,3.42-1.69,5.55-4.61,7.49-7.8,1.88-3.1,3.76-6.21,7.46-7.74,5.79-2.39,8.92-1.03,10.28,5.01.36,1.6.25,3.31.38,4.97.27,3.41,2.55,3.77,4.94,2.69,7.03-3.19,13.58-6.84,13.07-16.73-.13-2.62.26-5.3.77-7.89.24-1.24,1.42-2.24,2.96-2.08,1.71.17,2.05,1.58,2.05,2.88,0,4.32-.12,8.64-.26,12.96-.08,2.56-1.24,5.27,1.64,7.84,3.22-.84,3.46-4.27,4.95-6.54,1.27-1.94,2.16-4.11,3.34-6.12.85-1.44,1.98-2.89,3.81-2.8,1.92.1,2.46,1.79,3.12,3.39,1.65,4.06.38,10.84,5.92,11.34,4.42.4,5.3-6.11,8.15-9.22,3.54-3.87,5.59-3.45,7.43,1.63.45,1.25.63,2.61,1.17,3.81,1.88,4.21,4.12,4.97,7.66,1.98,3.02-2.56,5.45-5.81,8.18-8.72,1.89-2.02,4.44-4.38,6.65-1.53,3.04,3.92,4.6,1.71,7-.36,6.78-5.86,10.16-5.4,14.64,2.73,2.99,5.42,6.33,9.04,13.09,8.71,4.83-.24,8.27-1.52,9.99-6.44.86-2.45,2.31-4.83,3.98-6.83,1.63-1.94,4.09-2.36,6.23-.6,1.86,1.54,1.36,3.53.3,5.39-.49.87-1.03,1.71-1.53,2.57-4.78,8.18-4.27,9.63,4.51,12.2,1.56.46,3.56.21,3.72,2.42.21,2.9-2.28,2.86-4.12,3.16-3.18.52-6.04-.51-8.06-2.98-3.01-3.69-6.22-5.01-11.26-3.94-9.45,2-16.79-1.19-21.33-10.41-2.43-4.94-4.14-4.77-7.99-.54-1.11,1.23-2,2.65-3.08,3.91-4.47,5.22-5.14,5.11-10.2-2.01ZM198.85,114.7c-.71,5-1.1,9.87,1.74,15.49,3.89-6.69,2.37-11.32-1.74-15.49ZM288.99,111.64c-3.3,4.06-4.25,7.3-.9,11.72,2.84-3.98,3.78-7.21.9-11.72ZM229.48,126.98c-.26-.51-.42-1.34-.81-1.47-1.04-.36-1.93.23-2.36,1.17-.51,1.14.14,1.9,1.25,2,1.09.1,1.67-.69,1.91-1.7Z"/><path class="cls-1" d="M1305.99,344.16c-5.26,4.99-10.71,8.52-17.66,3.31-2.08-1.56-3.6.42-5.19,1.54q-7.67,5.41-12.24-2.92c-2.77,1.72-5.43,3.62-8.3,5.1-8.02,4.15-13.88.39-13.58-8.7.09-2.58.77-5.15,1.4-9.1-7.42,4.56-15.26,4.89-22.28,6.94-1.18,4.93,3.95,1.2,4.13,4.08.14,2.18-.42,4.07-1.97,5.39-2.62,2.24-5.38,2.66-7.53-.71-1.28-2.01-.69-6.25-4.58-5.16-4.91,1.38-10.97,1.31-13.21,7.49-1.02,2.8-1.72,5.72-2.7,8.54-.45,1.29-1.42,2.27-2.96,2.07-1.7-.21-2.21-1.75-2.03-2.95.81-5.21,1.88-10.37,2.87-15.66-3.23-1.39-6.02-.19-8.81.67-9.18,2.83-9.07,2.86-9.69,12.33-.2,3.02,1.43,8.33-2.75,8.24-4.61-.1-1.79-5.24-2.17-8.15-.29-2.27.61-4.65-.84-7.42-9.52,4.9-19.63,3.05-29.73,2.26-2.16-.17-4.42,1.14-6.65,1.71-10.29,2.64-14.09-.72-12.37-10.94.37-2.21,1.92-4.32.45-6.94-6.25.07-10.5,3.41-13.82,8.26-2.8,4.09-6.55,6.56-11.48,7.07-2.39.25-4.91.04-6.01-2.48-1.19-2.74.74-4.17,2.88-5.47,3.6-2.19,7.11-4.54,10.6-6.79-1.29-3.93-4.94-4.91-7.04-7.4-3.44-4.09-2.64-7.99,2.15-10.57,2.54-1.37,5.38-2.2,6.87.96,1.77,3.78-1.33,4.33-4.08,4.83-.8.14-1.09.75-.86,1.89,6.63,6.09,13.83,9.26,22.51,3.13,1.07-.75,2.39-1.15,3.59-1.71,1.23-.57,2.57-1.08,3.75-.22,1.76,1.29,1.1,3.11.24,4.46-2.18,3.4-3.85,7-4.79,10.91-1.34,5.58.48,7.48,6.12,6.15,5.35-1.26,9.51-4.4,13.23-8.45,5.05-5.5,6.56-5.04,9.02,2.02,1.91,5.47,4.31,6.81,9.41,4.42,5.59-2.62,9.55-6.84,11.61-12.95,1.4-4.16,1.75-9.1,6.56-12.34,2.29,7.02-3.26,12.39-2.38,19.24,8.52-1.08,15.75-3.17,18.73-12.17.54-1.65,1.54-3.37,3.47-2.53,1.68.73,1.47,2.76,1.2,4.4-.62,3.79-3.96,6.84-3.5,11.09,3.5,1.03,6.36-.1,9.05-1.06,8-2.86,15.75-6.02,24.48-6.9,6.8-.68,11.28-6.56,15.17-12.05,1.47-2.08,2.14-4.86,5.21-5.45,2.57,3.72-.14,6.57-1.1,9.49-1.67,5.06-3.71,10.01-3.89,15.41-.21,6.38,2.25,8.26,7.79,5.48,5.02-2.53,9.35-6.58,14.51-8.64,7.08-2.84,11.62-6.85,11.68-14.85,0-.63.35-1.28.63-1.88.58-1.23,1.36-2.42,2.9-2.18,1.73.27,1.77,1.77,1.57,3.09-.53,3.62-1.19,7.22-1.77,10.84-.37,2.29-1,4.6-.96,6.89.07,4.7,3.29,6.64,7.33,4.25,2.83-1.67,5.03-4.37,7.8-6.15,4.11-2.64,6.51-1.24,6.96,3.76.12,1.32-.1,2.67.05,3.99.42,3.63,3.04,5.13,5.4,2.72,6.26-6.4,13.53.8,19.91-2.09.51-.23,2.09.73,2.41,1.47,2.76,6.34,6.37,2.78,8.99.38,1.92-1.76,2.82-4.88,6.13-2.95,2.68,1.56,2.8,4.2,2.08,7.04-.71,2.82-2.05,5.93,2.19,7.44,1.56.56,1.93,2.13.7,3.07-4.33,3.29-3.4,8.43-4.78,12.74-1.32,4.12-2.41,8.34-4.91,11.95-3.83,5.54-8.85,7.53-12.47,5.08-4.65-3.14-5.98-11.44-2.05-16.03,3.22-3.75,6.29-7.79,10.74-10.33,1.43-.82,2.89-1.68,4.11-2.77,1.02-.91,1.25-2.3.89-3.68-.42-1.56-1.68-2.17-3.03-1.88-5.11,1.09-9.14-.19-11.96-4.77-.29-.47-1.43-1.01-1.66-.83-5.14,3.87-10.91,1.22-16.27,1.92-8.54,1.11-8.41,2.01-11.64-6.4-.34-.88-1-1.64-1.8-2.9ZM1352.03,367.88c-4.35,3.27-7.26,5.28-9.96,7.55-1.78,1.5-3.01,3.49-2.88,5.99.11,2,.42,4.04,2.49,4.97,2.16.97,3.79-.18,4.97-1.92,2.94-4.33,5.25-8.91,5.38-16.59ZM1283.32,339.41c-3.44,1.3-4.98,2.94-5.46,5.99,3.29-.46,4.94-1.93,5.46-5.99Z"/><path class="cls-1" d="M632.64,429.4c.91-.97,1.77-1.99,2.75-2.88,6.5-5.91,6.6-5.94,3.01-13.36-1.22-2.53-2.32-4.94-.56-7.46,1.27-1.81,3.24-1.98,5.36-1.42,3.57.95,4.58,3.42,4.43,6.79-.07,1.62.12,3.26.2,5.11,4.84,1.08,7.55-2.52,10.96-4.12,2.1-.98,3.95-2.5,6.05-3.49,5.31-2.49,7.08-1.45,7.74,4.5.17,1.56-.1,3.16-.2,5.33,4.4-1.26,8.08-2.49,11.84-3.36,5.79-1.34,5.61,4.24,7.52,7.05,2.18-.05,3.07-1.67,4.44-2.54,4.91-3.11,5.2-2.99,7.7,2.49,2.71,5.94,4.23,6.43,9.57,2.84,3.86-2.6,7.54-5.45,11.42-8.01,1.04-.69,2.58-.88,3.65.3,1.11,1.22.54,2.63-.31,3.54-2.83,3.06-4.37,6.57-4.55,10.72q6.37.25,28.35-24.37,4.02,5.91,11.33,5.12,9.28-1.01,10.63,8.69c3.07.7,4.88-1.64,6.95-3.08,3.69-2.56,6.18-4.48,11.08-.34,3.87,3.26,10.96,3.01,16.08.65,5.37-2.48,10.06-1.82,15.39-.53,6.24,1.51,12.98,4.19,18.32-2.62,1.59-2.02,4.12-2.57,5.92-.07,1.44,2,.2,3.75-1.42,5.16-1.18,1.03-3.22,1.21-3.21,4.19,3.57,2.73,7.13.55,10.32-1.33,6.29-3.73,12.35-7.86,18.51-11.82,1.96-1.26,3.83-2.71,5.91-3.71,2.26-1.08,4.98-3.97,7.15-1.56,2.73,3.03-1.33,4.27-2.99,5.91-1.97,1.96-2.26,3.93-.74,6.23,2.22,3.33,5.08,6.68,1.61,10.72-2.69,3.13-8.98,2.5-15.71-1.44,2.74-3.94,7.93.18,10.55-3.23-3.96-8.85-3.92-8.79-11.11-3.87-3.84,2.63-7.64,5.45-11.82,7.41-6.11,2.86-11.69,4.01-18.54-.72-6.29-4.35-15-4.46-22.84-5.16-2.76-.25-4.49,2.51-5.98,4.78-1.84,2.8-3.19,2.27-6.29.7-6.57-3.33-13.51-7.21-21.55-2.9-8.13,4.35-8.29,4.07-12.46-4.72-.39-.82-.97-1.8-1.73-2.15-3.74-1.74-14.68,2.5-15.96,6.62-1.1,3.54-1.65,5.92-5.71,2.71-1.74-1.38-2.92.47-4.11,1.53-2.47,2.22-4.77,4.69-7.47,6.58-8.82,6.15-12.56,4.23-13.71-6.82-2.28-.56-3.53,1.26-5.13,2.26-6.54,4.07-7.69,4.18-12.12-1.96-2.75-3.81-4.76-4.07-7.66-.69-1.3,1.51-2.62,3.02-3.99,4.46-.94.98-2.07,1.81-3.5,1.11-1.37-.68-1.46-2.06-1.47-3.4,0-.67.06-1.33.03-2-.1-2.2,1.72-5.08-.73-6.45-3.07-1.71-5.83.83-8.15,2.45-4.46,3.11-5,9.01-8.79,14.68-2.89-8.77,2.29-16.13-.45-23.41-3.19-1.39-5.24,1.61-7.88,2.54-4.93,1.74-6.5,3.99-3.68,9.55,3.01,5.94.86,11.07-4.19,14.94-5.37,4.11-11.34,5.96-17.74,2.92-6.51-3.09-6.38-9.96,0-15.84-.31,2.25-.65,4.51-.96,6.77-.24,1.76.31,3.24,1.77,4.29,4.28,3.08,13.1,1.46,15.83-3.08,2.08-3.46,1.51-6.91-.73-10.18-2.49-3.65-5.15-1.24-7.8-.33-2.79.97-5.61,1.88-8.41,2.82Z"/><path class="cls-1" d="M627.92,740.69c-2.94,2.67-5.18,5.17-7.86,7.06-6.05,4.25-9.59,3.03-12.15-3.76-.69-1.83-.16-4.06-2.06-5.78-5.3.65-8.65,3.96-10.94,8.66-.85,1.74-1.27,4.04-3.8,3.97-3.24-.08-1.27-4.17-3.6-5.06q-12.73,7.33-19.06-3.4c-4.25,1.14-5.35,5.7-8.58,7.94-4.4,3.05-7.63,1.85-8.51-3.44-.38-2.28-.13-4.66-.39-6.97-.36-3.19-2.27-4.79-5.47-4.21-3,.54-4.92,2.02-3.64,5.56.45,1.24.66,2.58.83,3.9.44,3.43-1.25,5.8-4.11,7.3-2.92,1.54-6.14,1.72-7.98-1.37-2.25-3.78-4.3-3.19-7.11-.87-2.83,2.33-5.96,4.18-9.6,5.13-8.47,2.21-14.99-1.89-15.42-10.49-.44-8.76.72-17.26,7.52-23.94,1.5-1.47,2.71-2.92,5.01-2.25,1.94.56,2.44,2.12,2.37,3.87-.1,2.55-1.46,3.4-3.97,2.88-2.28-.48-2.63,1.49-3.15,2.97-1.44,4.09-2.81,8.22-3.01,12.58-.33,7.6,4.56,11.13,11.57,8.29,5.65-2.29,10.69-5.8,14.07-10.83,5.18-7.72,13.31-6.15,20.52-7.07,3.12-.4,5.24,2.36,5.85,5.75.45,2.52-.55,5.33,1.72,8,4.73-.62,6.26-5.36,9.4-7.98,4.44-3.68,5.58-3.52,7.6,1.67,2.83,7.27,3.37,7.79,9.3,3.35,6.3-4.71,14.71-3.98,20.83-9.45,3.22-2.88,6.49-.61,7.94,4.03.68,2.19.13,4.7,2.08,7.13,4.94.02,7.67-4.08,11-6.96,7.33-6.35,7.69-6.27,9.74,3.2.13.61.66,1.13,1.57,2.61,7.59-4.1,14.03-9.38,18.23-17.03,2.22-4.04,3.59-8.55,5.53-12.75,1.03-2.23,2.86-4.02,5.53-3.07,3.05,1.08,3.47,3.74,2.83,6.61-.52,2.35-1.94,4.18-3.5,5.95-1.72,1.96-4.29,3.26-5.12,6.91,3.27.89,7.43.69,8.29,5.78.76,4.5,4.77,6.17,9.12,6.19,8.66.03,17.28.45,23.29-8.07,2.72-3.85,5.47-2.79,6.51,1.74,2.26,9.82,5.44,11.55,14.35,7.61,2.11-.93,4.11-2.19,6.04-3.48,3.7-2.48,7.63-7.55,9.58,1.52.4,1.83,1.91,1.18,3.02.24,4.82-4.08,9.09-3.15,12.89,1.48,2.96,3.6,7.84,3.06,11.83,5.05-5.54,4.07-9.12,4.85-13.19.88-4.71-4.59-7.84-5.59-12.78-.26-3.85,4.15-5.12,3.16-7.52-4.76-3.31-.58-5.37,2.01-7.92,3.3-5.6,2.82-11.17,4.15-16.85.21-.78-.54-2.21-1.5-2.42-1.31-6.64,6.43-13.92-1.34-21.26,1.14-6.88,2.33-14.61.36-19.14-7.05-.69-1.13-2.15-2.79-3.01-1.98-4.48,4.2-12.23-.9-15.71,5.72-.28.53-1.02.83-1.57,1.21-7.55,5.17-9.61,4.76-15.59-3.8ZM538.15,744.37c.02-1.67-.52-3.32-2.55-3.35-1.51-.02-2.12,1.51-2.18,2.87-.08,1.68.14,3.58,2.38,3.49,1.43-.06,2.05-1.49,2.35-3.01Z"/><path class="cls-1" d="M471.21,341.22c-2.6.91-4.31,3.03-6,5-3.93,4.56-6.01,1.93-7.94-2.67-4.81,3.28-8.09,8.88-14.49,7.82-4.01-.66-4.43-4.58-6.21-7.2-2.44-.2-3.43,1.6-4.76,3.08-6.67,7.43-8.7,7.37-15.71-.52-2.63,1.84-5.21,3.84-7.98,5.51-4.03,2.43-5.7-5.42-9.53-2.58-3.05,2.26-5.89,4.43-9.86,3.84-4.14-.61-6.51-3.19-6.96-7.31-.43-4.01.23-7.92,1.03-11.88.84-4.15,2.82-8.17,2.24-13.33-7.13,1.15-11.92,5.93-17.55,8.87-2.26,1.18-1.43,2.94-.23,4.96,4.1,6.86,2.77,13.33-3.3,18.01-1.34,1.03-2.72,1.97-4.54,1.4-2.27-.72-3.01-2.6-2.99-4.67.02-2.65.28-5.31.67-7.94.61-4.09-1.22-5.35-5.05-5.1-4.56.3-8.88.51-8.77,6.82.03,1.88.08,4.59-2.74,4.29-2.35-.24-2.36-2.79-2.71-4.73-.1-.52-.69-.95-1.38-1.84-2.9,2.12-5.98,3.96-6.98,7.84-.36,1.4-.98,2.5-2.69,2.08-1.63-.4-1.85-1.87-1.89-3.14-.09-2.99-.28-6.04.16-8.98,1.61-10.63,2.26-21.46,6.02-31.79,5.11,10.19-1.13,20.21-.29,30.28,9.37-2.72,9.38-2.91,10.54-12.26.63-5.09.49-10.47,3.87-15.67,2.76,1.99,2.14,4.29,1.93,6.38-.39,3.97-.95,7.92-1.29,11.89-.15,1.76.48,3.81,2.5,3.49,5.06-.8,10.24.49,15.12-3.39,7.26-5.76,15.47-10.34,23.39-15.24,3.21-1.98,4.99-.81,4.8,3.05-.11,2.3-.72,4.59-1.21,6.86-.91,4.23-2.27,8.41-2.73,12.68-.46,4.37-3.19,10.45,1.74,12.68,4.95,2.24,10.15-2.25,13.7-5.54,3.6-3.33,6.06-7.65,11.37-8.95,1.98-.48,2.52-2.92,3.05-4.88.61-2.25,1.19-4.51,1.95-6.71.53-1.53,1.23-3.49,3.36-2.58,1.93.83,1.32,2.74.87,4.33-.37,1.28-.85,2.52-1.24,3.8-.39,1.27-.88,2.54-1.04,3.85-.6,4.87-3.2,11.31,1.04,14.12,4.91,3.25,7.17-3.97,10.76-6.35,2.12-1.41,3.45-4.12,6.48-4.24.54.6,1.13.99,1.33,1.53,1.23,3.22-1.03,8.16,3.49,9.57,3.61,1.13,5.57-2.92,8.27-4.7,3.59-2.37,6.51-7.37,12-3.33,1.18.86,2.53-.09,3.63-.87,4.91-3.5,8.41-3.04,10.48,3.23.79,2.4,3.03,2.01,5.04,1.07,4.46-2.07,9.15-3.6,14.69-7.74-1.36,9.37,2.25,16.53,1.12,23.96,4.84,2.96,8.17-3.21,13-1.11-1.43,3.68-4.84,4.56-7.66,5.48-5.89,1.93-8.27,6.19-9.43,11.76-.95,4.55-1.85,9.17-3.38,13.54-1.85,5.28-5.01,5.65-8.67,1.45-5.86-6.75-5.16-15.51,1.84-21.08,1.81-1.44,4.07-2.31,5.9-3.73,3.75-2.9,5.59-9.37,3.77-13.55-1.57-3.59-3.94-5.82-8.53-5.06-9.84,1.62-9.87,1.45-15.43-3.88ZM490.65,370.14c-7.98,5.06-8.37,6.76-3.11,13.74q3.22-7.43,3.11-13.74ZM362.88,337.36c-1.76,3.43-2.19,6.28-.55,10.36,2.57-3.85,5.77-6.55.55-10.36ZM413.41,340.85c-1.29-1.39-2.48-.24-3.27.58-.99,1.02-2.97,2.02-1.24,4.16.9-.46,1.83-.81,2.62-1.36,1.1-.77,2.11-1.67,1.89-3.38Z"/><path class="cls-1" d="M982.61,318.87c3.72,5.35-2.35,9.33-.33,14.32,7.44.47,14.99.79,22.15-2.54,3.14-1.46,5.83-2.01,6.9,2.28,1,4.02,1.9,7.93,7.39,7.6,5.7-.34,11.11-4.12,12.57-9.5,1.22-4.53,2.37-8.98,5.58-12.62,2.76-3.14,5.23-6.86,11.31-3.88-4.05,3.89-10.43,5.46-9.3,12.31,4.18.74,4.32-5.26,8.27-5.16,2.06,3.12-.66,4.91-2.12,6.73-2.07,2.58-4.85,4.59-6.88,7.2-2.3,2.96-1.13,5.67,2.52,6.77,2.43.73,5.29-.68,8.01,1.95-3.54,4.54-8.01,4.68-11.93,1.71-4.9-3.71-9.28-3.9-14.53-1.2-2.63,1.35-6.21,2.13-8.66.31-3.84-2.87-6.78-2.86-10.47.11-1.86,1.5-3.92.09-4.43-2.23-1.73-7.98-7.9-3.56-12.11-4.3-4.02-.7-7.01.72-7.88,5.42-.58,3.11-1.71,6.97-5.26,1.59-1.91-2.9-3.39-.59-4.62.65-3.3,3.33-6.74,6.44-11.08,8.35-2.46,1.08-5.71,2.77-7.56.88-5.56-5.7-10.75-1.77-16.24-.43-9.38,2.29-13.27-.32-15.62-10.01-.3-1.26-.17-2.69-2.1-3.96-2.89.8-4.64,3.77-7.02,5.8-2.53,2.15-4.77,4.68-7.47,6.58-3.05,2.14-6.67,3.58-10.32,1.73-4.02-2.04-3.39-6.08-3.23-9.72.06-1.32.54-2.61.64-3.93.19-2.53,1.35-5.67-3.03-5.8-4.37-.12-7.31,2.17-6.68,5.94.81,4.82-.42,8.48-4.1,11.51-1.98,1.63-4.14,2.21-6.45,1.02-2.27-1.17-3.22-3.21-3.23-5.76-.01-3.25,2.49-6.27.86-9.75-4.94-1.51-7.18,1.97-9.54,5.13-2.87,3.84-6.5,6.64-10.99,8.3-2.3.85-4.78,1.2-6.33-1.08-1.73-2.54-1.19-5.44,1.22-7.11,4.33-3,9.01-5.5,14-8.48-2.82-4.95-7.92-6.92-11.94-10.11-4.29-3.41-4.91-7.38-1.73-10.94,1.47-1.65,3.3-2.43,5.27-1.13,1.67,1.09,1.72,3.01.52,4.32-2.59,2.81-.72,3.88,1.54,5.08,1.76.94,3.89,1.67,5.06,3.13,8.19,10.22,18.81,8.49,29.57,6.33,1.63-.33,3.2-.98,4.84-1.15,6.08-.64,7.98,1.34,7.18,7.35-.13.98-.57,1.92-.73,2.9-.49,3.07-2.98,6.95,1.2,8.73,3.51,1.5,5.96-1.81,8.36-4.12,3.83-3.68,7.73-7.29,11.7-10.83,1.48-1.32,3.28-2.53,5.4-1.84,2.39.78,2.17,3.03,2.31,4.99.02.33-.04.67,0,1,.5,3.96-1.85,9.09,4.31,10.78,5.16,1.42,13.32-2.33,16.09-7.6,1.23-2.34,1.96-4.94,2.94-7.42.92-2.34,2.38-4.54,5.12-3.25,2.64,1.24,1.88,4.02,1.1,6.17-.67,1.85-2.07,3.41-2.82,5.24-.89,2.16-1.63,4.61.59,6.43,2.1,1.71,4.54,1.22,6.47-.27,7.62-5.9,15.02-12.03,19.6-20.84,1.64-3.16,2.29-6.96,6.12-9.68ZM872.89,342.43c-1.8.62-2.33,2.18-2.4,3.79-.07,1.53.98,2.4,2.48,1.9,1.89-.63,2.01-2.35,1.82-4-.12-1.01-.64-1.83-1.9-1.69Z"/><path class="cls-1" d="M687.92,547.98c-5.71.13-9.66,3.14-12.73,7.86-1.87,2.87-3.94,5.76-7.93,2.62-.48-.38-1.35-.81-1.79-.62-10.86,4.57-19.1-2.95-27.87-6.61-4.95-2.06-7.89-2.38-10.97,1.97-.75,1.05-1.83,1.98-2.95,2.62-2.1,1.21-4.06.9-4.31-1.82-.3-3.28-.07-6.62-.07-10.7-4.2,1.2-4.7,4.82-6.54,7.1-1.66,2.05-2.87,4.48-4.62,6.44-2.21,2.48-5.3,2.7-8.33,1.95-3.52-.87-4.47-3.82-4.55-6.93-.16-6.25-.05-12.51-.05-18.65-3.71-1.33-6.15,1.14-8.8,2.08-9.66,3.44-9.58,3.63-9.08,13.96.08,1.66.02,3.33-.03,4.99-.09,2.81-1.73,4.17-4.37,4.51-2.87.37-5.12-.13-6.34-3.32-2.3-6.02.01-15.49,5.64-18.72,6.89-3.96,14.11-7.4,21.72-9.89,1.96-.64,4.98-1.08,5.35.84,1.25,6.5,6.24,7.18,11.41,7.64-1.04,3.62-3.66,3.39-5.81,3.82-2.62.53-4.18,2.08-4.62,4.59-.52,2.94-1.3,6.55,1.57,8.29,3.39,2.05,5.47-1.38,7.09-3.64,3.86-5.4,7.31-11.09,10.99-16.63.88-1.33,1.75-3.03,3.84-2.42,2.14.63,1.83,2.56,1.73,4.11-.25,3.92-.69,7.83-1.21,13.35,6.33-4.89,11.37-5.7,16.46-.11,2.45,2.69,6.08,2.73,7.99-1.61.4-.91.74-1.86,1.28-2.69,2.12-3.25,5.37-4.72,8.5-2.49,3.28,2.34,2.29,5.9.13,8.85-.93,1.28-2.86,1.7-3.2,3.54.33,1.73,1.92,2.32,2.99,1.83,6.19-2.78,13.41-2.78,18.94-7.51,2.17-1.86,5.24-2.95,8.09-3.7,5.71-1.5,7.42-.19,8.77,5.86,1.49,6.69,1.54,6.8,7.39,4.36,3.08-1.28,5.97-3.15,9.49-1.83,3.09,1.16,4.97-1.07,7.2-2.39,3.65-2.15,6.81-1.84,9.72,1.54,8,9.29,8.04,9.25,18.45,3.94,1.48-.75,2.93-1.56,4.46-2.2.55-.23,1.27-.04,2.67-.04.3,5.88.75,11.74.85,17.61.11,6.66-.03,6.66,7.06,6.06.97-.08,2-.4,2.76.58-.05.59.06,1.64-.16,1.72-7.56,2.63-11.73,7.68-12.59,15.83-.42,3.96-2.64,7.55-5.21,10.65-3.37,4.08-10.28,5.15-14.58,2.55-1.62-.98-2.03-2.52-2.14-4.22-.17-2.66-.08-5.35-.47-7.97-.75-5.13,1.61-8.29,6.04-10.22,3.35-1.46,6.7-2.98,10.17-4.1,3.89-1.25,4.95-3.74,4.74-7.6-.53-9.77-.95-10.85-11.03-9.77-8.65.93-12.63-4.14-16.14-9.96-3.61.18-5,2.74-6.97,4.42-2.43,2.07-4.64,3.85-7.62.64-2-2.16-4.23-.56-6.44.14-10.94,3.49-11.32,3.19-12.85-8.46-.08-.6-.6-1.15-1.1-2.07ZM738.69,602.86c.63-.13,1.3-.16,1.89-.4,3.37-1.34,8.47-11.4,7.76-15.13-.31-1.6-1.47-2.31-2.79-1.95-4.12,1.13-8.15,2.71-10.97,6.06-2.05,2.44-2.11,5.45-.55,8.27.98,1.77,2.51,2.98,4.66,3.14Z"/><path class="cls-1" d="M498.02,433.31c-6.03,3.61-11.66,7.8-18.54,9.65-3.5.94-5.46,3.47-6.09,7.15-.33,1.94-1.16,3.82-1.87,5.68-.61,1.59-1.47,3.16-3.57,2.57-2.08-.59-2.11-2.37-1.67-4.03,1.43-5.48,3.1-10.89,5.99-15.83.85-1.45,1.76-3.01.48-4.55-1.38-1.66-3.05-.54-4.54.01-4.98,1.85-9.95,3.72-14.89,5.69-2.64,1.05-4.25,3.08-4.88,5.89-.51,2.27-.92,4.59-1.72,6.77-.81,2.22-.27,6.49-4.1,5.35-2.96-.88-1.67-4.6-1.43-7.09.46-4.84,3.95-9.08,3.26-14.49q-12.95,8.46-18.16.32c-4.19,1.35-5.29,5.64-7.94,8.42-1.48,1.55-3.14,2.51-5.29,1.98-2.62-.65-3.92-2.61-3.85-5.14.11-3.64.68-7.27.91-10.92.12-1.94.46-4.21-2.06-4.99-2.03-.63-7.7,2.97-7.91,4.91-.07.62.2,1.31.43,1.93,1.63,4.36,2.22,8.5-2.54,11.39-2.52,1.53-12.91.3-15.34-1.7-2.89-2.39-3.12-7.52.73-10.35,5.3-3.9,4.75-6.89.76-11.19-2.53-2.72-4.01-6.42-1.1-9.97,3.05-3.72,6.75-3.15,10.6-1.74-.19,1.35-.06,2.18-.41,2.53-1.83,1.86-6.84-.74-6.32,4.34.41,3.94,7.11,9.75,10.43,8.92,3.2-.8,6.16-2.48,9.32-3.49,5.22-1.68,7.39-.13,8.16,5.22.61,4.28-1.78,8.49-.07,13.37,4.3-1.46,5.73-5.23,7.77-8.43,1.35-2.11,1.89-5.64,5.19-5.13,2.55.39,2.86,3.32,3.28,5.61.06.33.07.66.13.99.81,4.73,4.03,4.66,6.23,1.96,3.97-4.85,9.14-7.17,14.57-9.65,8.7-3.98,8.81-4.12,10.24,6.15,6.35-2.72,12.73-5,19.63-4.84.96.02,2.22-.91,2.87-.55,5.79,3.26,10.29,3.36,16.92-.35,5.03-2.82,12.71-2.72,19.07-4.6,1.28-.38,2.59-.63,3.85-1.07,5.09-1.8,9.73-1.94,12.25,3.86,4.01-2.26,5.73-5.67,8.38-8.13,3.16-2.95,6.58-5.64,10.57-7.42,5.82-2.6,7.32-1.88,9.24,4.23.38,1.22.67,2.48.95,3.54,4.46,1.21,7.76-2.96,12.59-1.55-.36,4.43-3.6,6.35-6.83,7.12-5.74,1.37-9.6,3.99-10.36,10.2-.16,1.3-.91,2.59-2.55,2.46-2.34-.18-2.26-2.14-2.26-3.7,0-3.4,1.54-6.43,2.63-9.57.87-2.51,2.32-5.8.02-7.47-3.03-2.2-5.56,1.01-7.55,2.95-4.96,4.85-10.76,9.05-13.47,15.83-1.12,2.81-2.1,6.19-6.12,4.76-3.22-1.14-2.42-4.32-2.31-6.93.07-1.59,1.15-3.12-.01-5.21-4.44-1.01-8.75.22-13.17,1.9-3.68,1.4-5.62,2.78-3.52,7.11,1.78,3.67-.06,6.52-3.74,7.86-3.82,1.39-6.41-.47-8.11-3.8-.72-1.41-.39-3.36-3.15-4.74ZM390.44,439.9c2.62-.09,5.73.35,6.09-3.23.24-2.42-1.31-4.33-3.93-4.73-2.87-.44-7.59,2.74-7.36,5.02.33,3.25,3.14,2.57,5.19,2.94ZM452.86,434.33c1.87-.58,2.45-2.07,2.52-3.8.03-.82-.65-1.27-1.4-.94-1.62.72-2.58,2.04-2.59,3.82,0,.3.96.61,1.48.91ZM481.56,435.12c1.02-.25,1.88-.83,1.92-1.88.05-1.27-.89-1.53-1.9-1.08-.87.39-1.76,1.03-1.48,2.14.1.37.95.56,1.45.82Z"/><path class="cls-1" d="M616.95,223.78c-4.53.04-7.29,2.57-10.31,4.56-3.62,2.38-6.2,4.65-3.03,9.58,3.17,4.92.79,9.74-2.34,13.84-3.47,4.55-8.65,5.12-12.61.75-2.49-2.75-4.07-2.53-6.59-.94-1.4.88-2.87,1.74-4.42,2.25-7.27,2.4-12.54-1.3-12.9-8.97-.19-4.06.26-8.1,2.04-11.71,2.63-5.35,5.64-10.52,8.65-15.68,1.06-1.81,2.99-3.14,4.98-1.7,1.82,1.32,1.58,3.62.52,5.45-.64,1.1-2.02,1.75-2.77,2.81-3.88,5.5-6.68,11.54-7.77,18.2-.84,5.17,2.34,7.76,7.13,5.7,2.69-1.15,5.39-2.94,7.3-5.12,4.13-4.69,9.35-8.13,13.29-13.19,4.24-5.45,10.59-9.13,17.31-11.41,5.72-1.94,8.19.08,7.63,6.16-.58,6.29-1.62,12.54-2.49,18.81-.31,2.25-.74,4.5.8,7.06,4.87-1.97,6.77-6.56,10.1-9.54,1.74-1.56,3.72-3.17,6.23-2.37,3,.96,2,3.78,2.23,5.97.11.99-.06,2.01.06,2.99.56,4.46,2.21,5.17,5.72,2.58,3.97-2.93,5.54-8.25,9.99-10.57,3.4,1.96,2.32,4.78,2.37,7.35.08,4.41,2.78,5.29,6,3.38,5.11-3.03,10.97-3.83,16.14-5.98,6.4-2.67,9.07-1.05,11.23,4.82,2.5-1.89,4.43-3.17,6.16-4.69,3.18-2.79,6.07-4.44,8.5.78,1.01,2.16,3.06,3.03,4.94,1.72,5.11-3.58,11.65-1.6,16.94-4.99,3.69-2.37,5.8.47,7.15,4.19,2.99,8.25,3.6,8.56,11.23,5.26,6.96-3.01,14.43-5.25,19.54-11.55,1.21-1.49,3.18-2.38,4.81-3.53,1.13-.8,2.47-1.3,3.65-.49,1.23.85,1.27,2.27.54,3.54-1.82,3.18-1.83,6.27.09,9.44,1.83,3.01,2.9,6.16-.07,9.11-3.12,3.09-6.6,4.42-10.54,1.64-.73-1.23-.21-2.12.73-2.47,4.4-1.63,5.87-4.54,3.17-8.48-2.81-4.1-5.15-.01-7.51,1.05-4.24,1.91-8.36,4.09-12.54,6.14-10.99,5.38-14.03,4.25-18.79-7.06-2.91-.58-3.73,2.13-5.43,3.47-1.01.8-3.16,1.97-3.21,1.89-5.23-7.59-13.99,4.08-19.31-3.58-1.1-1.58-2.84.52-4.24,1.27q-7.8,4.19-14.56-2.27c-3.21,3.23-5.97,8.39-12.03,4.25-1.02-.7-3.76.75-5.53,1.58-5.4,2.54-10.17,3.09-12.66-3.85-9.85,8.28-14.71,12.19-18.95-3.04-4.2,1.23-5.99,5.08-8.69,7.86-1.98,2.04-4.25,3.45-7.1,2.5-3.11-1.03-3.16-3.83-3.28-6.59-.24-5.38.79-10.54,1.77-15.8.71-3.79,2.3-7.72.73-12.43ZM597.82,238.28c-3.26,1.73-3.55,4.47-4.32,6.84-.38,1.16-.78,2.86.66,3.52,1.75.8,3.02-.56,4-1.85,1.98-2.62,2.23-5.33-.33-8.51Z"/><path class="cls-1" d="M248.44,243.66c-3.93,5.47-8,11.1-12.01,16.76-.76,1.08-1.21,2.38-1.98,3.45-1.19,1.65-2.61,3.18-4.94,2.33-1.83-.67-2.11-2.4-2.23-4.09-.25-3.68.19-7.26.98-10.88.96-4.42,1.63-8.47-.49-13.38-2.82-6.52,3.86-10.13,7.16-16.11,4.92,6.66-.18,11.43.31,16.27.51,5.03-2.35,9.72-1.36,15.41,4.17-1.38,6-4.73,7.67-8.07,2.12-4.23,5.14-7.76,8.33-11.15,1.58-1.67,3.61-3.65,6.03-2.22,2.05,1.21.75,3.55.52,5.47-.91,7.58-1.76,15.18-2.52,22.78-.16,1.58-.34,3.3,1.56,5.58,5.1-4.88,10.09-9.83,15.27-14.57,3.67-3.36,7.42-6.67,11.44-9.59,2.96-2.15,6.57-3.19,10.26-3.6,5.79-.65,7.68.63,9.38,6.29.55,1.84-.08,4.09,2.3,5.75,4.26-2.54,6-7.48,9.34-10.94,1.85-1.92,3.42-4.5,6.56-3.27,2.97,1.17,3.05,4.02,3.02,6.77-.04,3.61-1.15,7.26.51,11.47,6.21-2.37,8.38-10.06,14.62-11.86,2.54,2.31,1.3,4.77,1.39,6.96.14,3.25.74,6.08,4.49,6.72,3.72.64,6.57-.79,8.03-4.35,1.37-3.36,1.69-7.13,4.1-10.1,1.73-2.13,3.5-4.57,6.52-3.08,3.23,1.6,2.01,4.53.98,6.98-1.51,3.61-3.23,7.12-4.95,10.87,5.71,2.43,8.95-1.03,12.32-4.27,2.38-2.29,4.36-7.09,8.29-1.57.7.98,1.81.82,2.51.07,4.53-4.84,7.32-2.27,10.01,2.09,1.99,3.21,4.78,4.31,8.54,2.56,1.62-.76,3.35-2.52,5.46-.85-3.96,7.64-11.07,9.57-16.91,4.03-2.54-2.41-3.94-4.23-7.03-1-2.14,2.24-4.86,3.52-8.06,1.64-.55-.33-1.5-.81-1.82-.59-7.14,5.05-14.85,2.7-22.67,2.78-7.19.07-12.19-1-14.85-7.39-3.86.78-4.88,3.65-7.04,5.11-2.23,1.51-4.57,3.27-7.32,2.1-2.94-1.26-2.7-4.24-2.73-6.93-.04-3.2,1.67-6.5-.83-10.27-5.03,2.67-6.34,8.21-9.54,12.1-2.25,2.73-3.63,8.03-7.4,7.1-4.26-1.05-1.72-6.21-2.22-9.55-.24-1.63.1-3.34-.08-4.98-.49-4.67-2.39-5.86-7.46-5.3-4.61.51-5.64,3.23-4.24,6.99,2.4,6.44.61,11.71-3.97,16.28-1.39,1.39-3.39,2.55-5.41,1.31-1.51-.92-1.63-2.77-1.52-4.48.23-3.56,2.15-7.02.67-10.79-4.08-.09-5.65,3-7.48,5.69-2.81,4.13-5.63,8.24-8.33,12.43-1.81,2.81-4.3,4.5-7.51,3.46-2.97-.96-3.32-3.96-3.22-6.69.23-6.29-.25-12.63,1.56-18.82.46-1.56,1.72-3.96-2-4.84ZM280.76,260.29c1.15.13,1.87-.51,2.15-1.49.37-1.29.29-2.75-1.05-3.34-1.03-.45-1.73.6-2.09,1.52-.53,1.33-.29,2.5.99,3.31Z"/><path class="cls-1" d="M594.35,638.3c-3.85,1.77-5.32,5.65-7.6,8.81-.8,1.11-1.75,2.2-3.19,2.01-2.11-.28-2.28-2.05-2.32-3.75-.25-9.64.99-19.07,3.82-29.74,5.47,6.69.24,13.69,3.1,19.33q10.81-3.48,14.42,6.67c3.78.43,5.89-2.54,8.47-4.4,6.37-4.59,6.31-4.65,8.38,2.95.14.53.74.93,1.2,1.5,4.13-1.11,6.47-4.3,8.76-7.6,2.45-3.54,4.96-7.06,7.53-10.51.58-.77,1.51-1.22,2.63-.72,1.06.47,1.44,1.39,1.37,2.36-.11,1.63-.19,3.35-.74,4.86-1.66,4.59-.51,6.75,4.68,7.04,5.1.28,7.77,3.38,6.2,10.37,7.43-4.75,13.32-8.21,17.08-14.36.87-1.42,1.86-3.14,3.8-2.03,1.73.99,1.33,2.87.63,4.4-1.86,4.07-2.48,8.12-.28,12.79,8.91-2.77,14.49-9.26,19.1-16.57,2.69-4.26,6.04-7.91,9.08-11.85.59-.77,1.48-1.37,2.6-.94,1.65.63,1.44,1.93,1.16,3.26-.66,3.16-3.35,5.85-2.28,9.5,3.71,1.15,7.32.21,10.91-.11,10.39-.93,11.45.31,8.88,10.78,1.33,1.46,2.58.25,3.25-.53,8.41-9.76,19.66-9.86,31.17-9.61,5.66.12,6.25,4.33,8.65,7.87,1.55,2.28,7.45-4.37,10.13,1.21,3.2,6.67,7.81,5.97,13.23,3.54.71-.32,1.82.25,2.85.43-5.32,7.67-10.16,9.21-16.08,4.19-3.7-3.14-6.05-4.52-10.81-1.48-5.07,3.24-7.24,1.49-6.43-4.57.48-3.58.45-5.96-3.73-6.32-3.53-.3-6.71-.21-7.14,4.62-.2,2.26-.96,4.59-1.96,6.64-1.06,2.18-3,3.6-5.69,3.12-3.17-.56-3.11-2.95-2.9-5.38.14-1.61.29-3.21.47-5.21-3.37-.58-5.38,1.11-7.12,2.98-1.82,1.96-3.56,3.94-6,5.17-5.61,2.83-9.17.73-8.9-5.43.08-1.93.67-3.85,1.15-6.45-7.07-.77-13.47-1.33-16.96,6.5-.64,1.44-1.22,3.51-3.33,2.88-2.81-.84-1.42-3.17-1.28-5.02.13-1.61,1.06-3.2-.1-5.43-5.52,4.25-9,10.43-14.82,14.18-8.28,5.34-10.68,4.73-14.16-4.88-3.47-.64-5.26,2.3-7.45,3.97-6.27,4.76-13.38,5.43-20.84,5.13-4.3-.17-6.15-2.11-5.14-6.37.74-3.14,1.66-6.24,2.53-9.5-3.46-.37-3.98,2.49-5.49,3.93-6,5.7-7.39,6.07-14.94,1.76-1.97-1.13-2.94-.22-4.39.47q-9.3,4.38-13.61-5.09c-.25-.54-.94-.87-1.54-1.39ZM646.18,644.16c-.46-1.69-1.79-1.86-3-1.67-2.67.44-5.1,1.5-5.16,4.68-.03,1.58,1.56,1.88,2.83,1.67,2.74-.45,4.72-1.89,5.33-4.69Z"/><path class="cls-1" d="M241.06,554.15c-6.93,1.26-13.4-1.54-20.39.59-3.87,1.18-9.08-4.26-13.07,1.45-.22.32-1.64.35-1.84.06-5.51-7.9-8.22-.36-11.85,2.09-.82.56-1.7,1.06-2.6,1.48-3.06,1.42-7.11,3.19-9-.06-2.25-3.85,2.89-4.1,4.85-5.91.47-.43.74-1.07,1.43-2.12-6-3.95-10.52-8.92-7.08-17.81-5.46,1.72-8.37,4.98-11.84,7.32-2.34,1.58-1.73,3.8-1.64,6.21.32,8.47-7.85,15.53-16.29,14.47-3.89-.49-5.32-4.72-2.47-8.47,1.97-2.6,4.65-4.66,7.02-6.96-.53-3.02-3.25-3.15-5.08-4.23-7.09-4.19-7.84-7.03-1.98-13.03,4.68-4.8,7.48-10.69,12.11-16.67-8.97-.97-16.51,1.8-23.97,3.51-17.46,3.99-17.39,4.39-17.3,23,0,.29.3.59.47.91,4.74,1.48,8.26-3.74,13.12-2.76-.41,4.18-3.72,4.85-6.32,5.57-6.85,1.89-9.66,6.39-9.92,13.14-.11,2.91-.71,5.81-1.15,9.15,5.82,1.6,9.43-5.74,15.57-2.85-3.67,5.93-9.45,8.21-15.36,9.78-3.83,1.01-5.42-1.75-5.04-5.36.9-8.59,2.19-17.14,2.82-25.75.47-6.39,3.78-12.74-.11-19.34-1.89-3.21,2.89-4.53,3.68-7.49,1.33-4.98,3.68-.98,5.73-.02,2.33,1.09,4.55-.17,6.72-.9,7.26-2.46,14.67-4.31,22.23-5.48,3.27-.5,6.62-.96,9.9-.8,5.41.27,7.02,3.68,3.69,7.95-3.27,4.18-7.3,7.77-10.52,11.98-2.16,2.82-7.02,5.5-2.88,10.03,3.71,4.06,9.95,4.53,14.52,1.18,5.08-3.73,9.87-7.86,14.85-11.75,1.55-1.21,3.16-2.53,4.96-3.18,1.96-.71,3.4.58,2.74,2.61-.92,2.82-2.37,5.48-3.64,8.18-1.66,3.52-2.64,7.39.73,10.05,3.55,2.8,7.54,5.99,12.69,3.86,3.36-1.39,6.81-2.8,9.43-5.46,3.13-3.18,5.55-1.83,6.93,1.42,2.39,5.63,5.29,7.07,11.58,4.87,4.16-1.46,9.44,1.7,14.1-1.77,1.63-1.21,3.81.63,3.89,3.06.42,12.35.49,24.65-5.4,36.06-.99,1.91-2.34,3.29-4.69,2.82-2.19-.43-3.45-1.95-3.81-4.08-.28-1.65-.16-4.04,2.04-3.37,4.15,1.27,4.48-1.78,5.17-4.03,2.25-7.37,2.63-14.97,2.26-23.17ZM153.75,557.47q8.53-3.94,8.26-9.69c-3.62,2.06-6.4,4.34-8.26,9.69Z"/><path class="cls-1" d="M674.44,115.83c-5.39,7.84-9.81,9.18-17.42,4.77-3.06-1.77-5.49-3.59-8.77-.72-1.05.92-3.01,1.04-3.65-.04-3.92-6.67-7.69-1.99-11.25.12-7,4.16-13.81,8.6-21.88,2.28-1.78-1.4-3.01.3-4.32,1.18-1.5,1.01-3.82,1.56-4.45.05-3.2-7.71-7.06-2.91-10.8-.85-7.23,3.98-14.13,9.23-23.22,4.89-1.19-.57-3.16.44-4.75.79-11.23,2.43-14.53,1.03-20.46-8.91-.85-1.43-1.4-3.03-3.23-3.71-3.31,2.41-4.64,6.32-6.92,9.54-3.85,5.44-8.29,5.14-11.26-.88-1.73-3.5-2.89-7.28-4.65-11.86-4.62,2.92-4.8,7.43-6.39,11.09-2.25,5.19-2.85,5.5-7.13,1.63-1.75-1.59-2.53-1.6-3.75-.06-1.06,1.34-2.09,2.59-4.75,2.33,1.16-7.2,5-13.4,7.21-20.11.83-2.53,3.16-2.44,4.3-.04.89,1.86.95,4.12,1.42,6.36,3.07-1.83,3.91-4.97,5.95-7.11,3.06-3.2,5.71-2.74,7.48,1.49,1.02,2.43,1.36,5.15,2.23,7.66.74,2.13,1.82,4.15,3.11,7.04,5.31-3.72,7.24-9.18,10.61-13.42,1.36-1.71,1.84-4.98,4.78-4.24,2.53.63,2.58,3.58,3.28,5.77.71,2.22,1.38,4.47,2.38,6.56,2.01,4.2,5.12,7.15,10.12,6.63,4.98-.52,7.55-3.73,8.29-8.58.55-3.62.99-7.28,2.67-10.61.79-1.56,1.98-2.74,3.89-2.5,2.35.3,3.28,2.08,3.67,4.14.61,3.24-1.45,5.67-2.64,8.39-1.03,2.34-3.19,5.03-.88,7.34,2.43,2.43,5.88,1.4,8.37-.09,7.7-4.6,16.15-7.87,23.29-13.46,5.37-4.21,6.26-3.81,8.49,3.03.31.95.48,1.94.83,2.87,2.09,5.57,4.4,7.02,9.88,4.28,7.4-3.7,14.38-8.26,21.42-12.65,3.53-2.21,3.65-5.91,3.76-9.73.26-9.13,2.56-14.01,4.94-12.43,4.94,3.28,2.38,8.32,1.91,12.77-.35,3.31-.96,6.61-1.04,9.93-.18,7.82,4.54,11.67,12.1,10.08,2.16-.46,3.92-2.79,7.26-1.01Z"/><path class="cls-1" d="M1089.58,553.37c-7.17,4.38-14.6,7.58-23.38,4.03-2.61-1.05-3.88,1.96-4.62,4.19-1.56,4.73-2.84,9.55-4.5,14.24-.74,2.08-1.64,5-4.54,4.35-3.12-.7-2.31-3.77-1.75-5.78,2.66-9.58,5.46-19.12,8.5-28.59.93-2.88,10.68-7.6,13.52-7.03,2.86.57,3.92,2.87,3.35,5.21-.66,2.76-2.28,5.3-3.51,7.98,11.68,1.12,19.27-3.72,22.68-14.15,1.02-3.11,1.81-6.42,4.72-8.98,5.09,3.18-.9,8.19,2.31,11.97,2.86,1.11,6-.7,9.21-.92,7.21-.5,7.34-.49,8.97,7.04.14.64.3,1.28.53,1.88.11.3.4.52.83,1.05,1.03-.71,2.13-1.38,3.14-2.16,5.66-4.39,6.12-4.29,8.43,2.05,2.28,6.27,4.23,7,10.39,4.39,3.54-1.5,5.6-4.62,8.43-6.88,4.51-3.61,6.45-3.23,9.16,1.89,1.96,3.69,2.61,8.67,8.81,7.28,6.12-1.37,12.04-6.74,12.36-12.69.3-5.6,2.37-10.3,5.18-14.83.86-1.38,2.4-2.54,4.19-2.03,1.86.53,2.32,2.35,2.23,4.03-.22,4-1.19,7.81-2.98,11.47-6.07,12.41-3.54,17.5,10.32,21.16.28.07.5.39.75.6-4.9,7.64-9.46,6.14-20.74-7-2.24,1.21-4.5,2.53-6.85,3.69-5.28,2.6-10.49,2.68-14.55-2-2.66-3.07-4.37-3.2-6.98-.11-3.38,4.01-8.22,1.01-12.28,2.06-4.51,1.17-8.57.76-11.22-3.85-1.95-3.39-4.03-1.76-6.56-.33-6.22,3.53-7.17,2.88-8.19-3.73-.43-2.81,1.96-7.21-3.63-7.64-5.99-.47-11.8,2.46-13.31,6.74-.22.62-.23,1.31-.38,1.95-.66,2.72.99,7.28-2.49,7.73-4.72.6-2.28-5.22-5.51-8.28ZM1069.13,547.87c-.22-.56-.35-1.53-.68-1.59-1.58-.33-2.29.87-2.69,2.11-.14.44.26,1.52.53,1.56,1.53.23,2.29-.82,2.84-2.07Z"/><path class="cls-1" d="M860.25,744.79c16.56-4.59,17.99-20.86,26.11-34.3,3.17,12.82-7.86,20.63-4.45,31.38,5.02-1.33,7.1-5.41,9.46-9.22,3.32-5.37,6.66-10.73,10.07-16.04.94-1.46,2.5-2.64,4.18-1.71,1.84,1.03,1.09,2.83.33,4.35-2.97,5.98-5.83,11.97-5.13,18.96.44,4.41,2.8,5.8,6.65,3.42,2.8-1.73,5.41-3.76,6.54-7.23.6-1.84,1.75-3.62,3.06-5.06,1.37-1.51,3.35-2.43,5.25-.73,1.48,1.32,1.02,3.04.22,4.56-1.3,2.5-4.86,3.69-4.24,7.84,3.6.21,5.87-2.72,8.82-3.79,3.55-1.28,7.04-4.5,10.72.01,1.35,1.65,2.99.28,4.49-.35,2.13-.9,4.24-1.98,6.47-2.46,5.35-1.17,6.28-.38,6.8,5.14.12,1.27.02,2.56.02,4.26,4.58.98,7.79-1.71,11.37-3,7.07-2.56,10.46-.5,10.27,6.85-.4,15.73-5.89,29.83-14.7,42.72-.74,1.09-1.62,2.17-2.64,2.98-2.51,1.98-5.09,5.56-8.55,2.97-3.83-2.87-1.62-6.37.42-9.66,1.66-2.68,4.02-4.44,6.52-6.04,11.59-7.43,12.27-19.78,14.08-31.5.54-3.48-1.89-4.7-5.17-3.55-1.25.44-2.36,1.23-3.58,1.76-10.66,4.57-12.34,3.75-14.93-7.34-2.99-.88-4.66,1.66-6.9,2.75-3.67,1.79-7.24,5.64-11.03-.22-1.48-2.29-3.85-.29-5.13.83-6.94,6.02-15.76,2.33-23.45,4.68-3.52,1.08-6.04-2.28-6.44-6.05-.28-2.58-.05-5.21-.05-8.55-4.21,1.99-3.89,6.59-6.12,9.39-6.18,7.74-8.75,7.81-14.32-.61-2.76.6-4.31,2.94-6.39,4.52-2.42,1.84-5.03,3.79-8.15,2.91-3.59-1.01-6.36-.39-9.11,2.03-1.54,1.36-3.72,1.75-5.61.67-2.49-1.42-1.98-3.99-1.75-6.26.35-3.47,2.15-6.26,4.62-8.62,2.44-2.35,5.12-4.73,8.76-3.28,4.13,1.65,1.58,5.08,1.58,7.82,0,.59.43,1.17,1.08,2.79ZM849.5,746.2c3.63-.45,4.43-2.37,4.41-4.8,0-.27-1.23-.9-1.45-.74-1.61,1.13-2.54,2.74-2.96,5.54Z"/><path class="cls-1" d="M360.42,643.28c-1.53.76-2.43,1.17-3.29,1.64-11.23,6.18-15.21,4.63-18.36-7.52-.67-2.57-1.44-4.3-4.32-4.44-2.99-.14-5.97-.46-8.97-.58-1.94-.08-3.98-.75-5.84.51-1.46,2.41.64,4.39.84,6.6.39,4.24-.71,7.85-3.37,11.13-4.05,4.99-10.15,7.66-13.8,5.59-5.12-2.91-3.68-7.96-3.73-12.53-.03-2.88,3.13-6.27.29-8.41-3.05-2.3-6.2.95-9.18,2.08-7.58,2.85-13.53,8.4-20.3,12.59-2.98,1.84-2.95,5.01-4.06,7.7-1.19,2.91.12,6.89-3.61,8.69-2.07-.59-2.58-2.17-2.41-3.89,1.01-10.25,2.41-20.44,4.89-30.47.9-3.63,2.49-6.94,4.87-9.74,3.01-3.54,6.87-5.43,11.54-3.55,4.79,1.93,6.04,5.79,5.11,10.62-.29,1.53-1.52,3.08-.02,4.73,2.85.66,5.08-1.16,7.22-2.4,3.91-2.26,7.63-4.04,12.18-1.94,2,.92,3.9-.22,5.78-.77,5.53-1.61,11.06-1.87,16.78-.89,5.95,1.01,11.88,1.49,16.25-4.41,1.62-2.19,4.47-3.51,6.67-.37,1.75,2.5.25,4.31-2.04,5.65-1.14.67-2.25,1.41-3.33,2.18-3.66,2.6-4.01,6.51-2.08,9.74,2.37,3.97,6.42,2.8,9.69.75,5.99-3.75,11.07-8.25,13.89-15.17,1.96-4.8,2.97-10.14,7.5-16.1,1.84,7.73-2.32,12.68-3.16,18.65,3.95.96,6.8-1.75,9.98-2.78,8.81-2.86,12.03-1.04,13.43,8.26.37,2.44.87,4.4,2.9,6,1.1.86,1.12,2.36-.12,3.4-1.46,1.24-3.06,1.15-4.54.08-2.77-2-2.61-5.14-3.12-8.08-1.03-5.85-2.46-6.78-7.92-4.95-3.46,1.16-6.86,2.61-10.09,4.29-1.7.89-3.33,2.32-4.42,3.91-3.16,4.59-1.9,7.27,3.87,8.41,1.33.26,2.71.09,2.88,1.79.16,1.6-1.13,2.41-2.35,2.85-5.62,2-8.7-.18-12.1-8.86ZM303.82,645.79c0,2.7-.06,4.43,1.52,5.48,2.03,1.36,3.82.15,5.44-.91,3.16-2.06,5.39-4.94,6.1-8.67.75-3.95-1.69-6.64-6.04-7.43-3.92-.71-5.37,1.22-5.8,4.75-.32,2.61-.93,5.19-1.22,6.77ZM269.84,643.34c7.51-2.03,10.06-7.5,12.05-13.48.9-2.7,1.36-5.39-2.09-6.48-2.98-.94-5.2.58-6.32,3.3-2.11,5.14-3.25,10.51-3.64,16.66Z"/><path class="cls-1" d="M1043.53,553.09c2.45,2.76,5.25.82,7.1,2.31.53,1.13.16,2.41-.59,2.64-9.05,2.7-18.33.88-27.46.7-3.6-.07-5.29-4.59-4.54-8.75.87-4.8-2.2-4.9-5.42-4.25-2.25.45-5.57.88-6.35,2.39-3.47,6.75-10.74,6.95-16.17,10.15-5.41,3.2-11.25,4.45-16.24-1.29-1.45-1.67-3.52-2.44-5.39-1.43-5.51,2.98-11.54,3.01-17.48,3.37-3.59.22-5.4,1.71-6.04,5.23-.59,3.26-1.51,6.48-2.49,9.65-.75,2.43-1.34,5.12-4.66,6.56-2.3-3.77-.74-7.21-.14-10.55,1.75-9.77,5.53-19.17,5.25-29.32-.04-1.27.46-3.63,1.41-3.29,5.57,2,9.69-3.15,14.86-2.61,3.97.41,5.02,3.25,4.53,6.4-.53,3.46-1.93,6.78-3.12,10.73,7.03-1.05,12.66-2.58,14.73-10.06,1-3.63,4.3-4.16,7.28-2.34,3.13,1.92,2.96,4.89,1.15,7.82-.17.28-.42.51-.62.78-1.45,1.96-5.52,3.24-3.39,6.2,2.15,3,5.55.8,8.16-.43,2.37-1.11,4.81-2.46,6.66-4.28,7.38-7.23,17.05-8.62,26.43-10.55,5.35-1.1,6.55.68,4.85,5.93-.1.31-.4.58-.43.89-.3,2.6-4.12,5.37.11,7.76,2.94,1.67,8.6-.02,10.54-3.21,1.72-2.81,2.79-6.01,4.5-8.83,1.1-1.82,3.05-2.62,5.17-1.42,1.95,1.11,2.89,2.94,2,5.03-1.15,2.71-2.71,5.24-4.2,8.06ZM957.01,540.85c-5.23,2.01-7.96,5.52-8.49,10.74-.03.31,1.57,1.18,2.34,1.11,3.88-.37,5.79-3.98,6.15-11.84Z"/><path class="cls-1" d="M957.94,255.18c-.76.62-1.57,1.17-2.24,1.85-2.51,2.53-4.22,6.08-8.59,6.07-4.55-.01-4.92-3.86-6.23-6.71-1.08-2.36-6.14-1.26-4.78-5.12.83-2.37,2.84-4.45,4.67-6.31,3.59-3.64,5.2-8.47,7.98-12.58.84-1.24,2.16-1.87,3.41-1.3,1.32.6,1.48,2.17.98,3.44-.97,2.46-2.18,4.83-3.23,7.27-1.84,4.27-3.89,8.52-2.02,13.83,5.98-2.05,8.03-7.43,10.88-12.08,2.69-4.39,4.68-9.34,9.19-12.55,2.99,2.9,1.17,5.3.34,7.63-1.68,4.69-3.64,9.32-3.55,14.42.08,5.03,2.14,6.88,6.92,5.23,6.28-2.16,11.87-5.52,16.46-10.69,5.5-6.19,8.08-5.84,13.58.47,4.78,5.49,8.33,6.19,14.29,2.44,5.33-3.36,10.45-7.08,15.76-10.47,5.07-3.24,10.59-5.56,16.5-6.77,1.91-.39,4.1-.69,5.31,1.49.97,1.76-.06,3.18-1.27,4.38-2.77,2.74-2.69,5.78-1.29,9.16,1.55,3.73,1.36,7.38-2.34,9.71-4.28,2.69-8.92,4.53-14.13,2.79-.47-.16-.86-.9-1.05-1.45-.42-1.23.53-1.8,1.41-2.2.58-.26,1.3-.2,1.95-.33q9.71-1.93,7.66-11.13c-.35-1.59-.61-3.2-1.09-5.72-8.51,3.31-15.7,7.72-22.06,13.49-7.3,6.61-11.44,7.5-20.07,2.55-3.13-1.79-5.29-2.25-7.93.04-3.1,2.69-6.3,4.78-10.78,3.59-2.04-.54-3.74,1.03-5.54,1.84-10.89,4.94-12.72,4.34-19.07-6.25Z"/><path class="cls-1" d="M226.98,321.65c-1.02,5.57-4.82,8.06-7.39,11.19-2.84,3.44-3.29,6.19.01,9.49,2.83,2.83,5.05,6.17,6.72,9.85.82,1.81,1.69,3.62-.48,5.67-5.51-3.3-6.94-10.38-12.6-14.02-4.58,2.13-5.01,7.41-7.8,10.89-1.02,1.27-2.05,2.84-4.03,1.77-1.33-.72-1.51-2.13-1.26-3.47.8-4.24,1.72-8.47,2.55-12.71.75-3.83,2.82-7.49,1.51-12.28-7.41.18-12.58,4.92-18.05,8.78-2.15,1.52-1.59,4.21-1.26,6.53.48,3.29,1.14,6.56,1.5,9.87.14,1.32-.42,2.83-2.1,2.7-.78-.06-1.93-.97-2.14-1.71-.91-3.19-1.45-6.48-2.28-9.69-.75-2.92-2.41-3.53-5.2-2.15-3.61,1.78-5.49,4.71-6.49,8.39-1.01,3.75-1.4,7.74-3.84,10.93-3.26-.7-2.53-2.87-2.36-4.75.25-2.7,3.04-5.42-.63-8.05-1.85-1.32-.34-3.37.9-4.05,5.9-3.26,7.13-9.24,9.12-14.82.11-.31.14-.66.28-.96,1.65-3.54,2.44-9.08,6.56-9.12,4.27-.05,2.97,5.82,4.6,8.85.31.57.61,1.15,1.25,2.36,4.1-.66,7.42-3.59,11.26-5.14,2.46-.99,4.66-2.61,7.14-3.54,5.78-2.17,7.46-1.03,7.06,4.92-.29,4.23-1.1,8.43-1.94,14.62,6.66-7.81,8.61-17.8,19.42-20.34ZM178.27,329.09c-3.45,1.2-3.69,3.9-3.24,6.85.05.31,1.22.81,1.61.64,3.54-1.61,3.27-4.27,1.63-7.49Z"/><path class="cls-1" d="M277.85,449.07c-5.83-1.7-8.12-5.01-10.76-7.82-2.91-3.09-5.39-3.84-7.48.79-1.34,2.97-2.62,7.14-6.67,5.84-3.6-1.16-3.25-5.45-3.04-8.72.32-4.96,1.33-9.89,1.49-14.85.19-5.7-1.35-6.65-6.47-4.82-13.32,4.76-13.48,4.98-11.95,19.03.43,3.96,1,7.9,1.48,11.85.13,1.05-.23,2.04-1.22,2.41-1.56.6-2.72-.44-3.05-1.69-.58-2.22-.74-4.56-1.04-6.86-.65-4.86-.61-9.85-2.16-14.45-10.65.41-10.29,11.04-15.24,16.01-2.34-.91-2.38-2.35-2.11-3.55,2.32-10.05,5.1-19.96,10.03-29.12.92-1.72,1.71-3.85,4.13-3.79,2.36.06,3.05,2.11,3.98,3.88,3.77,7.16,3.81,7.14,10.98,3.85,3.01-1.38,5.91-3.16,9.06-4.07,5.02-1.45,7.57.49,7.76,5.79.22,6.22.05,12.45.05,20.83,4.78-10.4,9.32-18.28,18.77-25.1-.28,7.01-4.34,9.4-6.5,12.66-2.18,3.3-2.39,5.66.46,8.71,3.27,3.5,7.52,6.4,9.51,13.17ZM219.97,426.89c4.49-.83,6.02-3.11,5.19-6.93-.11-.52-.82-1.35-1.14-1.3-3.7.58-3.78,3.69-4.32,6.45-.06.29.08.63.27,1.79Z"/><path class="cls-1" d="M749.9,353.06c-8.08-2.32-8.49-10.12-13.66-14.03-3.66.96-3.73,4.85-5.41,7.43-1.13,1.73-2.38,3.63-4.66,2.51-1.63-.81-1.47-2.9-1.11-4.5,1.39-6.12,2.89-12.22,4.4-18.32.46-1.88,1.71-3.7-.22-6.23-8.21,1.55-15.74,5.76-23.68,8.73-2.77,1.04-2.58,3.46-2.64,5.84-.14,5.24-.18,10.53-2.68,15.99-5.17-3.75-2.61-8.37-3-12.29-.19-1.86,1-4.21-1.42-5.21-2.48-1.02-4.61.26-6.09,2.2-1.4,1.84-2.47,3.94-3.66,5.93-1.64,2.75-2.77,5.93-5.82,7.6-.73-.88-1.52-1.46-1.43-1.78,3.28-11.24,9.09-21.32,14.64-31.5,1.02-1.88,2.32-4.56,5.17-3.87,2.84.68,3.88,3,4.48,5.92,1.28,6.21,1.5,6.19,7.55,3.93,5.92-2.21,11.73-4.75,17.76-6.62,6.02-1.87,8.03.16,7.32,6.3-.37,3.16-2.53,6.11-1.25,10.14,5.84-3.27,8.1-10.99,16.18-11.82-.69,5.17-5.1,6.35-7.47,9.06-3.01,3.43-4.12,6.26-.54,10.21,3.27,3.6,6.47,7.55,7.26,14.38ZM697.67,320.43c-1.65-.36-2.22.92-2.87,1.96-.81,1.3-2.32,3.08-.55,4.1,1.96,1.12,3.57-.39,4.14-2.51.34-1.25.33-2.53-.72-3.55Z"/><path class="cls-1" d="M841.83,555.37c-.62,5.51-4.01,7.59-8.63,8-5.53.49-8.98-1.91-8.43-8.84-6,3.58-7.25,11.29-14.2,11.4-.5-.85-1.24-1.67-1.09-1.9,5.74-8.66,11.71-17.18,15.72-26.87,1.46-3.53,3.58-5.25,7.8-3.11,1.82.92,4.55.11,6.86,0,8.61-.44,11.36,2.44,10.88,11.12-.16,2.92-1.92,5.76-.57,8.73,1.94.59,3.27-.49,4.5-1.56,3.68-3.22,7.65-3.26,12.13-1.83,11.92,3.78,13.67,3.11,20.94-6.61,1.18-1.58,2.55-3.06,4.02-4.38,1.05-.95,2.55-.93,3.73-.19,1.67,1.05,1.77,2.65.95,4.34-1,2.05-3.33,3.37-3.35,5.99,2.74,3.1,6.41-.82,9.9,1.57-2.47,5.63-7.5,5.96-12.04,4.87-3.84-.92-6.95-.97-10.45.78-4.02,2-8.43,2.4-12.54.24-4.72-2.48-8.79-2.06-12.83,1.44-2.25,1.95-4.93,3.88-8.11,2-3.66-2.16-2.49-5.74-2.13-8.99.11-.99.43-1.95.58-2.94.58-3.86,2.16-8.34-3.67-9.44-7.25-1.38-12.88,2.29-13.26,8.39-.12,1.96.16,4.01.65,5.92,1.25,4.92,2.77,5.46,7.8,3.06,1.15-.55,1.96-1.89,4.85-1.2Z"/><path class="cls-1" d="M352.7,519.61c2.71,12.48-6.5,21.75-3.54,33.71,8.9-5.99,18.33-8.27,28.18-9.75,6.8-1.03,12.64-1.41,16.14,5.58,4.28-.81,5.11-8.31,11.64-4.28-5.65,4.1-7.09,11.23-12.47,16.25-3.08-5.59-1.42-12.95-8.75-14.09-3.25,1.58-1.19,3.62-.86,5.27.94,4.73-1.92,6.88-5.6,8.05-3.72,1.18-6.44-.69-7.91-4.17-.92-2.19.04-6.17-4.19-5.17-3.83.9-7.74,2.27-10.52,5.24-1.24,1.32.25,3.12.95,4.56,1.78,3.67,2.86,7.52,2.25,11.57-.69,4.59-4.53,5.93-7.94,2.74-3.59-3.35-4.71-7.84-5.19-12.6-.35-3.53.93-7.34-1.8-10.97-5.58,1.33-7.69,9.24-16,8.29,5.57-6.85,11.53-11.93,16.08-18.24,4.51-6.25,2.29-15.01,9.54-22ZM379.05,552.96c-.02-1.69-1.16-2.28-2.49-2.29-1.37-.01-2.51.73-2.57,2.24-.06,1.53,1.06,2.42,2.41,2.34,1.26-.07,2.36-.9,2.65-2.29ZM352.43,568.48q-.02-4.35-2.68-7.32c-.57,3.05-.5,5.67,2.68,7.32Z"/><path class="cls-1" d="M604.55,340.33c-3.3.68-4.92,3.74-7.28,5.76-1.76,1.5-3.43,3.27-5.45,4.27-5.33,2.63-8.65.38-9.17-5.89-.18-2.16,1.38-4.62-1.23-6.55-3.81.13-3.77,3.98-5.54,6.05-1.92,2.24-2.96,5.23-5.89,6.6-3.35,1.57-5.91.47-6.86-3.02-1.82-6.69,1.34-23.4,6.53-31.62,3.25,9.64-3.01,17.91-.96,27.15,8.75-6.19,10.27-17.83,19.48-23.84,2.09,2.94,1.52,5.73.43,8.43-1.8,4.46-1.69,9.08-1.6,13.73.08,3.91,1.95,4.75,5.06,2.79,1.66-1.05,2.93-2.69,4.5-3.92,8.96-7.04,10.99-7.8,20.96-8.96,2.61-.3,4.62.39,6.15,2.33,1.95,2.47-.22,4.24-1.26,6.22-1.47,2.78-3.7,4.94-6.5,5.93-6.17,2.19-8.34,6.85-9.26,12.78-.46,2.92-1.55,5.76-2.51,8.59-.45,1.31-1.56,2.24-3.03,2.1-2.37-.22-2.41-2.24-2.05-3.72,1.69-7.06,3.58-14.07,5.47-21.09.33-1.23,1.32-2.35.02-4.12ZM617.25,338.72c.39-.67.24-1.35-.55-1.44-1.81-.22-2.91,1.04-3.74,2.38-.5.82-.25,2.08.87,1.96,1.61-.18,2.59-1.55,3.41-2.91Z"/><path class="cls-1" d="M479.96,263.51c-.78-.17-2.96-.16-4.58-1.12-3.01-1.77-5.47-1.64-8.21.47-4.4,3.39-8.51,3.68-11.6-1.82-1.31-2.33-6.23.15-5.81-3.88.31-3.02,3.86-3.26,6.1-4.46,3.9-2.09,7.08-4.84,9.63-8.47,1.52-2.17,3.39-4.75,6.34-4.11,3.62.78,3.21,4.64,4.1,7.34.39,1.18-.14,2.63-.04,3.95.52,6.71,2.95,8.39,8.99,5.73,10.08-4.44,17.43-12,23.12-21.28,1.56-2.55,2.87-5.26,4.41-7.83.64-1.08,1.31-2.45,3-1.92,1.59.49,2.02,1.97,1.56,3.18-2.4,6.28-1.03,12.47.24,18.66.76,3.71-.61,6.58-3.42,8.76-1.83,1.42-4.22,2.86-6.27.86-2.2-2.14.49-3.37,1.66-4.76.42-.5,1.01-.92,1.29-1.48.91-1.88,1.43-4.09-.21-5.57-2.11-1.9-3.54.26-4.87,1.62-2.79,2.85-5.31,6.01-8.31,8.62-4.56,3.96-9.53,7.33-17.14,7.52ZM461.29,259c7-.71,8.82-3.76,9.64-8.77-5.23.76-6.61,4.42-9.64,8.77Z"/><path class="cls-1" d="M1310.35,546.94c-7.34,1.97-12.36,6.03-16.24,11.66-2.3,3.34-4.13,7.21-9.08,2.85-1.84-1.62-4.44-.11-6.64.62-4.14,1.37-8.33,2.72-12.46.11-2.98-1.88-4.11.54-5.56,2.22-1.64,1.89-3.45,3.2-6.04,1.97-2.99-1.42-3.08-3.98-2.54-6.79,1.03-5.39,3.2-10.18,7.72-13.48,3.96-2.89,6.79-1.7,7.7,2.96,2.06,10.47,2.7,10.21,12.82,7.24,7.05-2.08,13.15-4.58,18.61-9.69,4.11-3.84,10.1-4.94,15.71-5.66,4.68-.6,6.43,1.29,4.61,5.56-1.35,3.16-.88,4.33,1.57,6.43,6.06,5.21,5.25,10.04-1.91,13.4-1.76.82-3.78,1.2-5.73,1.46-2.04.27-4.29.01-4.57-2.56-.22-2.03,1.5-2.62,3.32-2.77,1.31-.11,2.7-.18,3.88-.68,2.61-1.11,3.94-3.31,1.28-5.22-3.37-2.43-5.04-5.82-6.45-9.63Z"/><path class="cls-1" d="M885.14,633.13c-4.31.9-8.71,2.79-13.48,1.9-.94-.18-2.66-.23-2.86.2-4,8.67-13.25,2.36-18.82,6.64-1.45,1.12-3.97,1.53-4.97-1.06-.74-1.92.73-3.21,2.26-3.87,6.8-2.93,12.89-6.65,17.55-12.69,1.82-2.35,4.76-2.87,5.72,1.31,1.31,5.69,5.13,5.19,9.24,3.85,6.34-2.07,11.05-6,13.46-12.37.83-2.18,1.4-4.47,2.37-6.57.83-1.8,2.09-3.81,4.47-2.94,2.26.83,2.22,2.97,1.68,5.05-.33,1.27-1.19,3.08-.66,3.8,3.4,4.6,2.71,7.11-3.05,8.7-2.63.73-3.41,3.88-3.82,6.6-.39,2.63-.68,5.28-1.13,7.9-.24,1.44-1.26,2.44-2.7,2.46-1.42.02-2.27-1.04-2.94-2.28-1.09-2.03.09-4.77-2.33-6.63Z"/><path class="cls-1" d="M84.21,119.65c4.46-2.62,6.17,3,10.37,3.15,2.1-3.16-.43-6.83.38-10.11.3-1.22.26-2.81,1.93-3.06,2.38-.36,2.52,1.53,2.8,3.14.22,1.29.32,2.6.47,3.95.81-.25,1.5-.29,1.96-.63,2.09-1.57,2.29-7.09,6.01-4.59,2.99,2.02-.45,5.29-1.65,7.84-1.3,2.78-4.62,5.85,1.43,7.19.97.21,2.15,1.22,1.6,2.08-3.65,5.65,2.21,6.26,4.47,8.78.9,1,1.69,2.24.92,3.57-1,1.74-2.6,1.7-4.29.95-2.7-1.19-4.28-4.3-7.5-4.46-1.54.47-1.93,1.71-2.31,2.99-.86,2.95-2.03,5.33-5.25,2.03-.92-.94-1.67-.69-2.61-.22-5.99,2.97-4.32-.76-3.41-3.88.26-.89.34-1.83.48-2.61-2.58-2.29-5.98,2-8.31-1.43.87-3.8,5.9-2.89,7.06-6.26-.24-3.42-4.9-4.51-4.53-8.41Z"/><path class="cls-1" d="M541.38,626.06c-2.77-1.1-2.73,3.57-5.39,2.77-.3-.48-1-1.16-.87-1.47,3.16-7.08,7.02-10.14,10.31-8.3,3.02,1.69,2.6,7.75-1,13.47-1.4,2.21-2.94,4.34-4.9,7.21,5.46,1.79,8.6-.54,11.25-4.03,3.3-4.35,5.41-10.32,13.12-6.95,2.52,1.1,2.87-3.23,4.94-4.12.81-.35,1.92-.39,2.77-.14,1.12.33,1.48,1.85.89,2.41-6.53,6.25-1.68,11.05,2.93,16.08-5.87,2.41-7.84-1.65-10.46-4.2q-5.24-5.09-10.41.13c-4.35,4.4-9.15,7.79-15.78,6.45-3.24-.65-5.75.62-8.39,2.17-2.45,1.44-5.01,3.27-8.06,1.7-.56-3.47,1.99-4.64,3.94-5.18,5.65-1.56,3.19-9.08,6.19-9.92,4.12-1.15,7.14-2.28,8.88-6.13.23-.52.03-1.23.03-1.95Z"/><path class="cls-1" d="M750.84,114.76c-2.88,4.16-.42,8.34-3.47,11.77-4.61-2.8-1.22-8.09-4.21-11.85-4.8,2.03-5.29,8.33-9.8,11.89-3.8-4.52,2.35-7.94,1.17-10.56-2.34-5.16,1.16-7.03,3.98-9.28-1.98-4.01-5.68-5.26-8.25-7.75-.73-.71-1.34-1.6-.83-2.6.7-1.37,2-1.34,3.38-1.18,4.22.5,5.68,5.43,10.71,6.45-1.74-8.95,7.05-7.89,10.68-11.97.65-.73,2.03-.57,2.59.3.47.72.7,1.92.45,2.72-1.26,4.09-5.71,6.46-6.11,11.03,1.53,1.44,3.2.51,4.78.58,1.92.08,3.7,1.55,1.88,3-4.68,3.74-1.35,5.12,1.47,6.94,1.38.9,2.82,1.77,3.99,2.91,1.19,1.17,2.16,2.69.49,4.26-1.22,1.15-2.37.46-3.51-.32-2.96-2.03-5.94-4.01-9.4-6.34Z"/><path class="cls-1" d="M486.18,544.45c3.33-3.82,5.49-6.77,8.11-9.22,4.82-4.5,9.55-3.42,11.38,2.65,1.95,6.45.98,13.2,1.27,19.82.04.91-.71,1.88-1.87,1.98-1.07.09-1.82-.45-2.28-1.42-1.18-2.49-1.01-5.17-1.21-7.81-.27-3.55.61-7.29-1.56-10.54-3.14-1.16-4.28,1.29-5.51,3.06-2.28,3.26-4.26,6.73-6.43,10.08-.91,1.4-2.03,2.95-3.88,2.61-1.75-.32-2.58-1.93-2.9-3.64-.62-3.26-1.16-6.53-1.83-9.78-.35-1.68-1.16-3.38-3.08-3.37-1.79.01-2.93,1.49-3.5,3.12-.97,2.81-1.78,5.68-2.69,8.52-.67,2.09-.55,4.77-4.69,5.28-1.83-6.03-.79-12.38.25-18.13.82-4.51,7.14-3.11,10.77-5,2.46-1.28,5.25.52,6.54,3.18,1.14,2.36,1.82,4.94,3.13,8.61Z"/><path class="cls-1" d="M827.58,746.92c-3.95,1.94-7.32,4.04-10.98,5.3-7.19,2.47-13.13-1.94-11-8.81,4.15-13.4,9.84-26.21,21.65-35.03,2.18-1.63,4.55-2.77,7.42-2.22,2.91.55,3.79,2.56,3.46,5.13-.37,2.92-1.96,2.83-4.17,1.51-3.05-1.82-5.08.55-6.89,2.34-7.23,7.15-11.74,16.06-15.61,25.3-.74,1.76-1.22,4.05.32,5.67,1.98,2.1,4.36.86,6.47.03,5.04-1.99,9.19-5.3,13.01-9.08,1.24-1.23,2.83-2.1,4.42-.95,1.52,1.1,1.36,2.86.83,4.54-1.39,4.39-4.13,8.4-3.67,13.33.09.92-.43,1.95-1.68,2.09-1.54.17-2.73-.63-2.98-1.98-.41-2.14-.39-4.36-.59-7.19Z"/><path class="cls-1" d="M895.36,267.74c-1.72-8.01,1.79-15.16,3.84-22.2,2.5-8.58,7.58-16.16,14.28-22.37,1.21-1.12,2.52-2.2,3.93-3.04,3.35-1.98,7.06-2.84,10.04.17,2.67,2.7,1.71,6.07.11,9.23-2.96,5.82-7.7,10.51-12.93,13.49-7.39,4.22-10.37,10.65-13.25,17.73-1.13,2.78-.99,6.85-6.02,6.99ZM909.32,240.89c6.59-4.39,10.81-7.89,13.23-13.13.33-.71.07-1.99-.39-2.7-.58-.91-1.79-.8-2.61-.19-4.75,3.51-9.03,7.38-10.23,16.02Z"/><path class="cls-1" d="M468.45,642.82c-1.86,3.69-4.84,3.87-7.75,4.2-2.68.31-20.22-2.49-23.54-3.98-2.98-1.34-5.08.57-7.35,1.72-5.07,2.57-10.23,4.87-16.04,4.72-5.9-.15-9.16-4.65-7.02-10.12,2.48-6.35,7.01-11.16,13.01-14.46,1.17-.64,2.72-.75,3.59.52.91,1.33.14,2.48-1.13,3.16-4.18,2.26-7.72,5.22-9.84,9.53-2.24,4.55-.53,7.04,4.48,6.63,4.36-.36,8.26-2.34,12.19-4.04,3.64-1.57,7.06-3.65,10.57-5.5,6.91-3.65,7.01-3.72,11.83,3.31,1.92,2.8,4.31,3.72,7.54,3.77,2.88.04,5.81-1.79,9.47.54Z"/><path class="cls-1" d="M262.47,317.66c2.57,3.03,1.36,6.62,2.19,9.78.57,2.18-.11,4.93,2.34,6.25,3.2,1.73,2.9,3.44,1.13,6.29-1.75,2.82.78,5.7,1.35,8.57.4,2.02,2.91,4.88-.59,5.8-2.96.77-3.06-2.74-3.86-4.73-.75-1.84-1.1-3.85-1.87-5.68-2.37-5.7-4.4-6.1-8.29-1.42-2.54,3.06-4.66,6.47-7.02,9.69-.96,1.31-1.86,2.83-4.59,2.44-1.02-5.21,5.35-9.82,2-15.3-.13-.21.66-1.39,1.14-1.48,8.38-1.62,8.41-9.27,11.03-15.07.91-2.02,1.27-4.62,5.04-5.13Z"/><path class="cls-1" d="M304.48,430.99c-10-1.29-11.46,8.38-16.19,13.08-2.53-.12-2.96-1.84-2.48-2.82,4.68-9.54,7.61-19.76,11.61-29.55.5-1.22,1.04-2.49,1.85-3.51,2.58-3.24,6.97-2.78,7.41,1.26.79,7.32,5.83,13.9,3.14,21.88-1.44,4.28,1.99,8.89.95,14.32-7.17-3.4-3.19-10.58-6.3-14.66ZM302.43,413.51c-2.99,2.78-2.86,5.97-3.78,8.73-.5,1.49-1.11,3.46,1.26,3.93,2.26.45,4.02-.92,4.37-3.01.54-3.2.86-6.56-1.86-9.65Z"/><path class="cls-1" d="M843.66,246c3.83-.03,6.44-.22,7.99,1.71,2.72,3.39,5.52,4.23,9.3,1.81,1.14-.73,2.68-.31,3.45.96.81,1.32.36,2.68-1.03,3.23-4.29,1.72-6.66,5.21-8.85,8.97-.81,1.38-1.94,2.86-3.88,2.46-2.27-.47-1.75-2.43-1.78-3.99-.03-1.65.07-3.31.14-4.96.12-2.96-.51-5.42-4.16-5.3-3.31.11-6.99-.04-6.65,5.01.02.33.09.66.06.99-.43,4.33-2,7.72-6.99,8.06-2.62.18-4.4-1.05-5.37-3.49-1.4-3.54.34-9.6,4.11-11.21,4.8-2.05,10.01-3.16,13.66-4.26Z"/><path class="cls-1" d="M780.64,336.55c-6.53,1.89-8.35,7.05-11.82,10.35-1.19,1.13-2.37,2.82-4.1,1.64-1.8-1.24-.69-2.95.27-4.31,5.96-8.43,11.48-17.08,14.49-27.09.49-1.63,1.4-3.34,3.32-3.04,1.78.28,2.62,2,2.63,3.77.02,10.83-.01,21.66-.07,32.49,0,1.38-.48,2.75-2.12,2.79-1.55.04-2.07-1.24-2.53-2.54-1.48-4.21.23-8.52-.05-14.07Z"/><path class="cls-1" d="M1170.09,729.6c-3.26.58-6.11,1.41-8.99,1.53-4.01.16-6.09-2.87-4.54-6.62,1.84-4.48,5.33-7.64,9.76-9.4,6.47-2.58,9.77-.39,10.49,6.72.95,9.36-1.54,17.96-5.35,27.75-6.22-7.28.55-13.13-1.37-19.97ZM1172.97,720.05q-7.55,1.05-8.58,6.19c3.32-.69,6.08-2.03,8.58-6.19Z"/><path class="cls-1" d="M1063.94,722.94c-4.29-.15-6.23,4.03-11.01,2.8,2.46-6.27,7.49-9.06,13.04-10.81,4.01-1.26,6.29,1.48,5.03,5.73-.74,2.52-2.11,4.87-3.28,7.24-1.03,2.08-2.23,4.07-3.25,6.15-.24.49-.04,1.2-.04,1.88,2.68,1.13,5.19-.31,7.77-.56,2.22-.22,4.43-1.7,6.67-.11.89,2.83-1.28,3.54-3.03,4.17-3.44,1.22-6.93,2.58-10.5,3.06-3.38.45-7.76,2.72-10.12-1.05-2.24-3.57,1.86-5.79,3.7-8.38,2.17-3.05,4.44-6.08,5.03-10.12Z"/><path class="cls-1" d="M1102.3,729.55c4.22,7.48,2.5,12.86-4.41,13.85-6.05.87-9.59-2.43-8.82-8.54.59-4.67,2.89-8.72,5.4-12.61,1.14-1.76,2.74-3.14,4.84-1.46,1.79,1.43,2.17,3.6.28,5.05-2.8,2.15-4.41,4.77-4.97,8.18-.23,1.42-.07,2.74,1.26,3.35,1.84.85,3.29-.34,4.16-1.72,1.15-1.83-.31-4.72,2.26-6.11Z"/><path class="cls-1" d="M1128.62,715.76c.89,9.93,1.3,19.68-1.98,29.11-.51,1.46-1.35,3.21-3.5,2.43-.92-.33-1.64-1.23-1.38-2.32,2.31-9.73.9-20.23,6.86-29.23Z"/><path class="cls-1" d="M924.76,257.85c2.99,2.07,4.96-2.26,7.62-.65,1.06.76.71,1.82.4,2.7-.7,1.96-2.18,3.42-3.93,4.35-2.63,1.41-5.53,2.89-8.47,1.15-2.73-1.61-2.42-4.69-2.04-7.23.53-3.59,1.62-7.1,2.62-10.6.26-.91,1.19-1.82,2.27-1.26.76.39,1.51,1.25,1.77,2.06,1.04,3.19-1.38,6.45-.24,9.46Z"/><path class="cls-1" d="M532.78,557.11c2.53.53,8.26-1.78,8.56,2.53.35,4.99-5.43,2.87-8.64,3.3-4.21.56-8.49.76-12.74.86-1.32.03-2.5-1.1-2.25-2.6.13-.82.91-1.92,1.65-2.18,4.06-1.45,8.3-2.02,13.42-1.9Z"/><path class="cls-1" d="M1005.17,755.04c.92.45,1.33.51,1.43.72,1.93,3.91.7,6.98-2.74,9.25-.83.55-2.31-.04-2.39-.93-.32-3.71.93-6.8,3.69-9.05Z"/><path class="cls-1" d="M911.36,445.95c1.15-4.31,2-7.53,3.07-11.55q3.29,6.66-3.07,11.55Z"/><path class="cls-1" d="M560.48,644.23c-.49,2.3-1.66,4.13-4.28,4.52-.28.04-1-.87-1-1.32.04-2.15,1.28-3.7,3.11-4.58.84-.41,1.83.14,2.17,1.38Z"/><path class="cls-1" d="M940.66,314.31c1.5.36,3.66.23,3.04,2.62-.49,1.87-2.43,1.93-4.06,1.84-1.34-.07-2.66-.57-2.56-2.23.14-2.31,2.05-2.02,3.58-2.23Z"/><path class="cls-1" d="M450.4,309.38c1.48.07,2.79.54,2.75,2.17-.05,1.92-1.36,2.85-3.23,2.95-1.15.06-1.91-.63-2.12-1.66-.43-2.08.95-2.92,2.6-3.46Z"/><path class="cls-1" d="M947.89,208.92c1.3.13,2.7.27,2.93,1.9.21,1.4-.22,2.64-1.94,2.62-1.34-.01-2.65-.43-2.98-1.94-.34-1.51.41-2.42,1.99-2.58Z"/><path class="cls-1" d="M638.3,710.66c.08,1.5-.67,2.5-2.11,2.63-1.4.13-2.59-.63-2.47-2.13.06-.73.93-1.69,1.67-2,1.32-.55,2.47-.04,2.91,1.49Z"/><path class="cls-1" d="M1199.72,762.93c-1.33-.24-2.39-.87-2.3-2.37.09-1.43,1.2-2.29,2.46-2.37,1.35-.08,2.36.84,2.27,2.32-.09,1.41-1.14,2.1-2.44,2.43Z"/><path class="cls-1" d="M172.57,85.32c-.08,1.11-.75,1.93-1.74,2.03-1.54.16-2.39-.79-2.13-2.33.17-1.01.97-1.73,2.05-1.64,1.07.09,1.74.81,1.82,1.94Z"/><path class="cls-1" d="M1328.17,310.87c0,.64-.61,1.31-1.57,1.57-.98.26-1.94-.09-2.25-1.07-.47-1.51.47-2.35,1.86-2.46.92-.07,1.76.42,1.96,1.96Z"/><path class="cls-1" d="M626.08,611.63c1.77-.02,2.8.84,2.85,2.21.02.69-.88,1.81-1.59,2.05-1.58.52-2.41-.78-2.5-2.06-.05-.74.84-1.54,1.24-2.19Z"/></svg>