<?xml version="1.0" encoding="UTF-8"?><svg id="Ebene_1" xmlns="http://www.w3.org/2000/svg" viewBox="0 0 88.08 63.99"><defs><style>.cls-1{fill:#795731;stroke-width:0px;}</style></defs><g id="sp91jH"><path class="cls-1" d="M18.73,27.98c.4,0,.81,0,1.21,0,22.31,0,44.62,0,66.94-.02.99,0,1.23.22,1.2,1.02-.07,2.07-.05,4.15,0,6.23.02.65-.18.85-1,.84-4.62-.03-9.25-.02-13.87-.02-17.76,0-35.51,0-53.27,0h-1.28c.08.41.45.58.71.8,8.42,7.01,16.84,14.01,25.28,21,.59.49.73.75.04,1.29-1.87,1.46-3.67,2.98-5.45,4.52-.56.48-.85.44-1.39-.01-10.03-8.37-20.08-16.72-30.13-25.07-2.43-2.02-4.87-4.04-7.34-6.04-.51-.41-.5-.63,0-1.05C12.91,21.11,25.42,10.72,37.93.32c.49-.41.75-.44,1.25,0,1.83,1.57,3.68,3.13,5.59,4.64.61.48.49.73-.04,1.17-8.44,6.99-16.86,14-25.29,20.99-.28.23-.67.36-1.01.54.1.11.21.22.31.33Z"/></g></svg>